<svg xmlns="http://www.w3.org/2000/svg" viewBox="0 0 58 58"><defs><clipPath id="prefix__clippath"><path fill="none" d="M0 0h58v58H0z"/></clipPath><style>.prefix__st3{fill:#afff00}</style></defs><g clip-path="url(#prefix__clippath)"><rect width="58" height="58" rx="5" ry="5" fill="#ff006e"/><path class="prefix__st3" d="M64.63 38.11c-3.82 2.23-8.01 4.42-12.43 6.47-4.41 2.05-8.8 3.84-12.96 5.31.21.09.43.17.64.25A19.126 19.126 0 0064.4 38.77c.08-.22.15-.44.22-.66zM81.14 16.11c-1.58-3.4-6.45-4.18-14.91-2.4-3.12.68-6.21 1.53-9.24 2.54a19.07 19.07 0 00-9.11-3.12c-3.25-.25-6.51.35-9.47 1.72a19.053 19.053 0 00-7.43 6.12 19.112 19.112 0 00-3.5 8.97 88.378 88.378 0 00-7.91 5.41c-6.82 5.31-9.37 9.53-7.8 12.93.31.64.74 1.2 1.27 1.67.53.46 1.15.81 1.83 1.03 2.56.94 6.47.84 11.81-.29 6.93-1.46 15.58-4.5 24.37-8.58 8.78-4.07 16.7-8.71 22.29-13.06 6.82-5.31 9.37-9.54 7.8-12.93zm-12.35 9.52c-5.19 3.84-12.31 7.92-20.04 11.51-7.73 3.58-15.45 6.38-21.73 7.86-6.18 1.46-9.14 1.22-10.14.9.4-.97 2.12-3.38 7.23-7.16 1.13-.84 2.36-1.68 3.66-2.54.4 1.84 1.06 3.61 1.97 5.26 6.11-1.81 12.08-4.08 17.85-6.79 5.8-2.65 11.39-5.74 16.72-9.23a19.18 19.18 0 00-2.74-4.9c1.49-.44 2.93-.83 4.3-1.16 6.18-1.46 9.14-1.22 10.13-.89-.4.97-2.12 3.38-7.23 7.16zM10.6 15.03c1.44 0 2.81.57 3.83 1.59a5.403 5.403 0 011.59 3.83c0 .29.11.56.32.77s.48.32.77.32.56-.11.77-.32.32-.48.32-.77c0-1.44.57-2.81 1.59-3.83a5.403 5.403 0 013.83-1.59c.29 0 .56-.11.77-.32.2-.2.32-.48.32-.77s-.11-.56-.32-.77-.48-.32-.77-.32c-1.44 0-2.81-.57-3.83-1.59a5.403 5.403 0 01-1.59-3.83c0-.29-.11-.56-.32-.77-.2-.2-.48-.32-.77-.32s-.56.11-.77.32c-.2.2-.32.48-.32.77 0 1.44-.57 2.81-1.59 3.83s-2.39 1.59-3.83 1.59c-.29 0-.56.11-.77.32-.2.2-.32.48-.32.77s.11.56.32.77c.2.2.48.32.77.32z"/></g></svg>